<?xml version="1.0" encoding="utf-8" ?>
<svg xmlns="http://www.w3.org/2000/svg" xmlns:xlink="http://www.w3.org/1999/xlink" width="368" height="312" viewBox="0 0 368 312">
	<path transform="matrix(1 0 0 1 44 0)" d="M140 0C62.6801 0 0 62.6801 0 140L0 140.21C0 217.53 62.4701 280 139.79 280L140 280C217.32 280 280 217.53 280 140.21L280 140C280 62.6801 217.53 0 140.21 0L140 0Z" fill-rule="nonzero" fill="rgb(239, 246, 255)"/>
	<defs>
		<clipPath id="clipPath0854518654">
			<path transform="matrix(1 0 0 1 120 76)" d="M0 0L128 0L128 128L0 128L0 0Z" fill-rule="nonzero"/>
		</clipPath>
	</defs>
	<g clip-path="url(#clipPath0854518654)">
		<path transform="matrix(1 0 0 1 120 76)" d="M64 8Q74.1086 8 83.371 9.63353Q92.4192 11.2293 99.4729 14.1683Q106.834 17.2354 111.032 21.3677Q113.363 23.6628 114.614 26.2066Q116 29.0263 116 32Q116 34.9737 114.614 37.7934Q113.363 40.3372 111.032 42.6324Q106.834 46.7646 99.4729 49.8317Q92.4192 52.7707 83.371 54.3665Q74.1086 56 64 56Q53.8914 56 44.629 54.3665Q35.5808 52.7707 28.5271 49.8317Q21.1662 46.7646 16.9685 42.6324Q14.6369 40.3372 13.3863 37.7934Q12 34.9737 12 32Q12 29.0263 13.3863 26.2066Q14.6369 23.6628 16.9685 21.3677Q21.1662 17.2353 28.5271 14.1683Q35.5808 11.2293 44.629 9.63353Q53.8914 8 64 8ZM64 16Q54.5915 16 46.0184 17.5119Q37.8413 18.9541 31.604 21.5529Q28.6214 22.7957 26.3015 24.226Q24.0725 25.6002 22.5807 27.0688Q20 29.6092 20 32Q20 34.3908 22.5807 36.9312Q24.0725 38.3998 26.3015 39.774Q28.6214 41.2043 31.604 42.4471Q37.8412 45.0459 46.0184 46.4881Q54.5914 48 64 48Q73.4086 48 81.9816 46.4881Q90.1588 45.0459 96.396 42.4471Q99.3786 41.2043 101.698 39.774Q103.927 38.3998 105.419 36.9312Q108 34.3908 108 32Q108 29.6092 105.419 27.0688Q103.927 25.6002 101.698 24.226Q99.3786 22.7957 96.396 21.5529Q90.1588 18.9541 81.9815 17.5119Q73.4085 16 64 16Z" fill-rule="evenodd" fill="rgb(59, 130, 246)"/>
		<path transform="matrix(1 0 0 1 120 76)" d="M12 53.5C12 51.2909 13.7909 49.5 16 49.5C18.2091 49.5 20 51.2909 20 53.5Q20 55.8937 22.5801 58.4346Q24.0713 59.9031 26.2996 61.2771Q28.6188 62.7071 31.6008 63.9495Q37.8367 66.5475 46.0146 67.9889Q54.5878 69.5 64 69.5Q73.4123 69.5 81.9854 67.9889Q90.1633 66.5475 96.3992 63.9495Q99.3812 62.7071 101.7 61.2771Q103.929 59.9031 105.42 58.4346Q108 55.8937 108 53.5C108 51.2909 109.791 49.5 112 49.5C114.209 49.5 116 51.2909 116 53.5Q116 56.4744 114.615 59.2944Q113.364 61.839 111.033 64.1346Q106.836 68.2677 99.4758 71.3342Q92.4232 74.2725 83.374 75.8675Q74.1119 77.5 64 77.5Q53.8881 77.5 44.626 75.8675Q35.5768 74.2725 28.5242 71.3342Q21.1637 68.2677 16.9668 64.1346Q14.6357 61.839 13.3855 59.2944Q12 56.4744 12 53.5ZM16 71C13.7909 71 12 72.7909 12 75Q12 77.9744 13.3855 80.7944Q14.6357 83.3391 16.9668 85.6346Q21.1637 89.7677 28.5242 92.8342Q35.5768 95.7725 44.626 97.3675Q53.8881 99 64 99Q74.1119 99 83.374 97.3675Q92.4232 95.7725 99.4758 92.8342Q106.836 89.7677 111.033 85.6346Q113.364 83.3391 114.615 80.7944Q116 77.9744 116 75C116 72.7909 114.209 71 112 71C109.791 71 108 72.7909 108 75Q108 77.3937 105.42 79.9346Q103.929 81.4031 101.7 82.7771Q99.3812 84.2072 96.3992 85.4495Q90.1633 88.0475 81.9854 89.4889Q73.4123 91 64 91Q54.5878 91 46.0146 89.4889Q37.8367 88.0475 31.6008 85.4495Q28.6188 84.2071 26.2996 82.7771Q24.0713 81.4031 22.5801 79.9346Q20 77.3937 20 75C20 72.7909 18.2091 71 16 71Z" fill-rule="evenodd" fill="rgb(59, 130, 246)"/>
		<path transform="matrix(1 0 0 1 120 76)" d="M16 27.81C13.7909 27.81 12 29.6009 12 31.81L12 96.19Q12 99.153 13.3922 101.96Q14.6457 104.487 16.9804 106.764Q21.1778 110.858 28.5367 113.895Q35.5866 116.804 44.6324 118.384Q53.8913 120 64 120Q74.1087 120 83.3676 118.384Q92.4135 116.804 99.4633 113.895Q106.822 110.858 111.02 106.764Q113.354 104.487 114.608 101.96Q116 99.153 116 96.19L116 31.81C116 29.6009 114.209 27.81 112 27.81C109.791 27.81 108 29.6009 108 31.81L108 96.19Q108 98.5338 105.434 101.037Q103.943 102.491 101.715 103.852Q99.3949 105.269 96.4117 106.5Q90.1731 109.074 81.9918 110.503Q73.4156 112 64 112Q54.5844 112 46.0082 110.503Q37.827 109.074 31.5883 106.5Q28.6051 105.269 26.2851 103.852Q24.0569 102.491 22.5665 101.037Q20 98.5338 20 96.19L20 31.81C20 29.6009 18.2091 27.81 16 27.81Z" fill-rule="evenodd" fill="rgb(59, 130, 246)"/>
	</g>
	<g opacity="0.5">
		<defs>
			<filter id="filter0989607230" filterUnits="userSpaceOnUse" color-interpolation-filters="sRGB">
				<feGaussianBlur in="SourceGraphic" stdDeviation="12"/>
			</filter>
		</defs>
		<g filter="url(#filter0989607230)">
			<defs>
				<linearGradient id="linearGradient0645895200" gradientTransform="matrix(1.95943e-15 -32 32 1.95943e-15 144 32)" gradientUnits="userSpaceOnUse" x1="0" y1="0.5" x2="1" y2="0.5">
					<stop offset="0" stop-color="rgb(243, 244, 246)"/>
					<stop offset="1" stop-color="rgb(0, 0, 0)" stop-opacity="0"/>
				</linearGradient>
			</defs>
			<path transform="matrix(1 0 0 1 24 256)" d="M16 0C7.16344 0 0 7.16344 0 16L0 16.024C0 24.8606 7.16344 32 16 32L304 32C312.837 32 320 24.8606 320 16.024L320 16C320 7.16344 312.837 0 304 0L16 0Z" fill-rule="nonzero" fill="url(#linearGradient0645895200)"/>
		</g>
	</g>
</svg>
